
<svg width="28" height="28" viewBox="0 0 28 28" fill="none" xmlns="http://www.w3.org/2000/svg">
<path d="M14 27.125C21.2487 27.125 27.125 21.2487 27.125 14C27.125 6.75126 21.2487 0.875 14 0.875C6.75126 0.875 0.875 6.75126 0.875 14C0.875 21.2487 6.75126 27.125 14 27.125Z" fill="url(#paint0_linear)" stroke="#1A1A1A" stroke-width="1.5" stroke-linecap="round" stroke-linejoin="round"/>
<path d="M10.4254 10.4253L7.48893 19.2313C7.42811 19.4101 7.41857 19.6024 7.46141 19.7864C7.50425 19.9704 7.59775 20.1387 7.73132 20.2722C7.86489 20.4058 8.03319 20.4993 8.21717 20.5421C8.40114 20.585 8.59343 20.5755 8.77227 20.5146L17.5783 17.5793" fill="white"/>
<path d="M10.4254 10.4253L7.48893 19.2313C7.42811 19.4101 7.41857 19.6024 7.46141 19.7864C7.50425 19.9704 7.59775 20.1387 7.73132 20.2722C7.86489 20.4058 8.03319 20.4993 8.21717 20.5421C8.40114 20.585 8.59343 20.5755 8.77227 20.5146L17.5783 17.5793" stroke="#1A1A1A" stroke-width="1.5" stroke-linecap="round" stroke-linejoin="round"/>
<path d="M20.51 8.76885C20.5708 8.59001 20.5803 8.39772 20.5375 8.21375C20.4946 8.02977 20.4011 7.86147 20.2676 7.7279C20.134 7.59433 19.9657 7.50083 19.7817 7.458C19.5978 7.41516 19.4055 7.42469 19.2266 7.48552L10.4253 10.4255L17.5746 17.5749L20.51 8.76885Z" fill="white" stroke="#1A1A1A" stroke-width="1.5" stroke-linecap="round" stroke-linejoin="round"/>
<defs>
<linearGradient id="paint0_linear" x1="27.125" y1="0.874998" x2="-3.75735" y2="8.59559" gradientUnits="userSpaceOnUse">
<stop stop-color="#87A9FF"/>
<stop offset="1" stop-color="#6289EE"/>
</linearGradient>
</defs>
</svg>
