<svg width="16" height="16" viewBox="0 0 16 16" fill="none" xmlns="http://www.w3.org/2000/svg">
<path d="M16 8C16 7.09649 15.5477 6.30479 14.8588 5.8258C14.4872 5.56742 14.3073 5.13296 14.3873 4.68752C14.5357 3.86172 14.2957 2.982 13.6569 2.34313C13.018 1.70426 12.1383 1.46425 11.3125 1.61265C10.867 1.6927 10.4326 1.51275 10.1742 1.14118C9.69521 0.452331 8.90348 0 8 0C7.09652 0 6.30479 0.452331 5.82579 1.14118C5.56742 1.51275 5.13297 1.6927 4.68753 1.61265C3.86173 1.46425 2.98201 1.70426 2.34314 2.34313C1.70427 2.982 1.46427 3.86172 1.61268 4.68752C1.69274 5.13296 1.51278 5.56742 1.1412 5.8258C0.45233 6.30479 0 7.09649 0 8C0 8.90351 0.45233 9.69521 1.1412 10.1742C1.51278 10.4326 1.69274 10.867 1.61268 11.3125C1.46427 12.1383 1.70427 13.018 2.34314 13.6568C2.982 14.2957 3.86171 14.5357 4.68751 14.3873C5.13295 14.3072 5.56742 14.4872 5.82579 14.8588C6.30477 15.5476 7.09649 16 8 16C8.90351 16 9.69523 15.5476 10.1742 14.8588C10.4326 14.4872 10.8671 14.3072 11.3125 14.3873C12.1383 14.5357 13.018 14.2957 13.6569 13.6568C14.2957 13.018 14.5357 12.1383 14.3873 11.3125C14.3073 10.867 14.4872 10.4326 14.8588 10.1742C15.5477 9.69521 16 8.90351 16 8Z" fill="#4B7EFF"/>
<path d="M12 6.23529L10.7273 5L7.09091 8.52941L5.27273 6.76471L4 8L7.09091 11L12 6.23529Z" fill="white"/>
</svg>
