<svg width="16" height="16" viewBox="0 0 16 16" fill="none" xmlns="http://www.w3.org/2000/svg">
<path d="M1.23333 1C1.09333 1 1 1.09333 1 1.23333V3.56667C1 3.70667 1.09333 3.8 1.23333 3.8C7.16 3.8 12.2 8.84 12.2 14.7667C12.2 14.9067 12.2933 15 12.4333 15H14.7667C14.9067 15 15 14.9067 15 14.7667C15 7.16 8.84 1 1.23333 1Z" fill="white"/>
<path d="M1.23333 5.2002C1.09333 5.2002 1 5.29353 1 5.43353V7.76686C1 7.90686 1.09333 8.0002 1.23333 8.0002C4.96667 8.0002 8 11.0335 8 14.7669C8 14.9069 8.09333 15.0002 8.23333 15.0002H10.5667C10.7067 15.0002 10.8 14.9069 10.8 14.7669C10.8 9.49353 6.50667 5.2002 1.23333 5.2002Z" fill="white"/>
<path d="M3.1 10.7998C1.93333 10.7998 1 11.7331 1 12.8998C1 14.0665 1.93333 14.9998 3.1 14.9998C4.26667 14.9998 5.2 14.0665 5.2 12.8998C5.2 11.7331 4.26667 10.7998 3.1 10.7998Z" fill="white"/>
</svg>
